<svg class="logo" width="113" height="55" viewBox="0 0 113 55">
<path fill="#FFF" d="M0 55h54.99V0H0v55zM111.41.01H58.008V55H113V.01h-1.59z"></path><path fill="#0055A6" d="M7.614 36.874c.199 0 .377-.149.529-.444.163-.313.246-.772.246-1.359 0-1.11-.13-1.932-.388-2.444-.251-.5-.586-.742-1.026-.742h-.079v3.384c0 .527.075.936.224 1.215.14.263.302.39.494.39zm7.253 3.146c.473 0 .839-.383 1.089-1.139.26-.789.392-1.816.392-3.057 0-1.282-.113-2.279-.335-2.963-.244-.756-.619-1.125-1.145-1.125-.463 0-.823.375-1.067 1.111-.256.766-.385 1.778-.385 3.008 0 1.199.132 2.211.392 3.009.248.767.605 1.156 1.059 1.156zM46.26 15.719c-.228-.339-.606-.503-1.155-.503h-.77c-.005.223-.046 1.841-.052 2.075h2.374c-.084-.747-.214-1.291-.397-1.572zm-27.81 7.42c.525 0 .914-.364 1.192-1.112.289-.784.437-1.806.437-3.037 0-1.274-.126-2.265-.374-2.943-.267-.738-.677-1.096-1.255-1.096-.514 0-.896.353-1.167 1.082-.284.761-.429 1.766-.429 2.989 0 1.191.147 2.198.437 2.99.278.759.658 1.127 1.159 1.127zM0 55h54.99V0H0v55zm25.447-13.004h-.091c-1.777 0-3.192-.585-4.207-1.738-.965-1.098-1.454-2.548-1.454-4.312 0-1.826.45-3.282 1.339-4.326.978-1.155 2.422-1.74 4.293-1.74h.092v2.005h-.092c-1.2 0-2.127.394-2.756 1.166-.577.707-.87 1.677-.87 2.88-.001 1.172.307 2.141.912 2.879.647.783 1.57 1.182 2.742 1.182h.091l.001 2.004zm22.644-.346s-.254-7.161-.269-7.574c-.268.283-2.65 2.804-2.697 2.854v4.721h-1.86V30.156h1.86v4.043c.294-.309 4.252-4.438 4.252-4.438l.15-.157.459 12.047h-1.895zm-5.789-28.356h3.154c.914 0 1.651.216 2.188.639.675.526 1.018 1.362 1.017 2.47l.982 8.452-2.144.001s-.572-5.407-.597-5.643c-.216 0-2.425-.001-2.656-.001-.01.253-.206 5.643-.206 5.643h-2.129l.391-11.561zm-1.646 16.31l.458 12.047h-1.895s-.254-7.161-.269-7.574c-.269.283-2.65 2.804-2.697 2.854v4.721h-1.86V30.156h1.86v4.043c.294-.309 4.253-4.438 4.253-4.438l.15-.157zm-6.816-16.31h5.686v1.922h-1.793v9.64h-2.128v-9.64H33.84v-1.922zM32.547 29.88v2.005h-.091c-1.199 0-2.127.393-2.755 1.166-.578.707-.87 1.676-.87 2.879 0 1.172.307 2.141.912 2.879.648.784 1.57 1.183 2.743 1.183h.092v2.005h-.092c-1.777 0-3.193-.585-4.207-1.738-.965-1.098-1.454-2.548-1.454-4.312 0-1.826.451-3.282 1.34-4.326.976-1.155 2.421-1.74 4.293-1.74l.089-.001zm-7.969-16.586h2.129v3.083c0 .266.079.469.242.621.225.214.581.322 1.059.322h1.159v-4.026h2.128v11.562h-2.128v-5.585h-1.555c-.833 0-1.552-.256-2.138-.762-.594-.511-.895-1.154-.895-1.914l-.001-3.301zm-8.812 1.392c.645-1.119 1.547-1.686 2.68-1.686 1.195 0 2.139.564 2.805 1.676.654 1.091.985 2.542.985 4.314 0 1.794-.32 3.255-.952 4.345-.676 1.166-1.632 1.756-2.839 1.756-1.187 0-2.102-.566-2.721-1.679-.604-1.089-.911-2.571-.911-4.406.001-1.774.322-3.227.953-4.32zm-.897 15.194c1.062 0 1.9.558 2.492 1.657.581 1.082.877 2.523.877 4.287 0 1.783-.286 3.236-.848 4.318-.601 1.152-1.449 1.736-2.521 1.736-1.054 0-1.867-.559-2.415-1.659-.538-1.081-.811-2.554-.811-4.379 0-1.761.285-3.206.847-4.293.573-1.108 1.373-1.667 2.379-1.667zM5.02 13.294h6.892v11.562H9.784v-9.64H7.148v9.64H5.02V13.294zm-.013 16.88h1.972c1.295 0 2.242.605 2.813 1.799.362.754.545 1.635.545 2.62 0 1.415-.229 2.507-.681 3.242-.405.654-.929.987-1.557.987-.437 0-.835-.191-1.202-.512v3.332h-1.89V30.174zM111.41.01H58.008V55H113V.01h-1.59zM110 52H61V3h49v49zM75.609 21.018c.516.409.731.815.731.815-1.225-.794-1.998-.3-1.998-.3.236 1.287 1.31 1.525 1.31 1.525-1.159-.129-1.631.45-1.631.45.428.945 1.547.987 1.547.987-.988.774-.816 1.332-.816 1.332 1.096.258 1.696-.28 1.696-.28-.837 1.095-.193 1.91-.193 1.91 1.117-.149 1.481-1.03 1.481-1.03-.107.988.388 1.245.388 1.245.601-.193.901-.731.901-.731.322.689 1.074.818 1.074.818.322-.623.086-1.202.086-1.202.645.193.838-.194.838-.194-.408-.451-.646-1.158-.646-1.158-1.117.45-2.492.215-2.878-.237-.385-.451.258-1.609.602-2.426.344-.816-.107-1.396-.515-1.675-1.821-1.246-2.491-2.169-2.899-3.07-.216 1.675.407 2.813.922 3.221zm3.573 9.729c-.164-.216-.285-.431-.375-.64.19 1.563.26 2.617 1.104 3.627 0 0 .509-.678.18-2.322-.141-.041-.3-.107-.454-.211 0 0 .192.668.072 1.341.001 0-.305-.222-.527-1.795zm-1.859-.749c-.07.907-.31 3.295.491 4.041 0 0 .549-.4.742-3.882-.117.194-.32.401-.42.514 0 0 .133 1.104-.264 1.884 0 0-.396-.301-.152-1.97-.1-.127-.294-.396-.397-.587zm-.898 2.856c.453-.744.568-2.24.665-3.692-.008-.091-.011-.181-.01-.269-.036.032-.073.064-.112.096-.094.074-.186.143-.278.205 0 0-.203 2.412-.875 3.218-.213-.899.303-2.062.574-3.039-.098.05-.193.094-.289.13-.775 1.27-1.701 3.098-.935 4.458.001 0 .815-.379 1.26-1.107zm-2.428-4.184c-.017-.036-.028-.072-.036-.098-.02-.066-.049-.192-.044-.35-1.817 1.941-2.872 2.272-2.872 2.272.676-1.36 2.34-2.206 2.913-2.534.034-.125.095-.257.198-.39-.026.005-.051.008-.075.01-.322.038-.575-.018-.771-.108-.758.552-1.789 1.384-2.595 2.296-.805.91-1.096 1.756-1.241 2.824 0 0 1.506-.052 2.459-1.373.948-1.319 1.422-1.919 2.064-2.549zm-1.002-1.406c-.062-.058-.108-.113-.144-.156 0 0-1.662 1.472-3.418 2.106 0 0 .375-.682 1.069-1.177.845-.601 1.479-.804 2.22-1.145l.062-.113c.02-.037.042-.07.066-.104-.617.241-2.824 1.073-3.537 1.442-.713.371-1.746 1.211-2.307 2.917 0 0 1.487.133 2.717-.882 1.229-1.017 2.66-2.436 3.272-2.888zm-.645-.658c-.367-.027-.627-.151-.764-.234-.962.428-2.251.936-3.529.969 0 0 .631-.446 1.293-.724.719-.302 1.51-.575 2.111-.729.023-.059.049-.115.074-.169-.727.149-2.547.365-3.359.615-.812.248-2.281.844-3.154 2.506 0 0 1.28.395 3.696-.74 2.414-1.138 3.171-1.373 3.632-1.494zm-5.268-.598c2.393-.172 3.844-.441 4.695-.686.143-.185.303-.324.47-.432-.308-.033-.489-.088-.726-.199-2.326.677-4.094.441-4.094.441.957-.484 2.813-.571 3.684-.65-.202-.122-.328-.226-.34-.236-1.035.14-3.397.121-4.295.295-.9.173-2.23.691-3.064 1.2 0-.001 1.276.44 3.67.267zm-4.52-3.855s1.67 1.178 3.582 1.594 3.465.151 4.6.161c.074-.111.158-.236.292-.362-1.327.008-3.536-.335-4.325-.599 0 0 1.926-.402 4.632.369.121-.072.267-.142.444-.209-1.211-.367-2.876-.953-5.378-1.117-1.837-.12-3.163-.015-3.847.163zm2.86-1.09c1.801.749 5.154 1.177 6.854 1.923-.791-.378-.933-1.061-.938-1.095-.956-.182-1.467-.245-2.646-.621-1.188-.381-1.908-.858-1.908-.858.511.05 1.119.095 1.938.324 1.039.291 1.571.477 2.717.915.283-.189.619-.277.927-.29-.82-.366-3.161-1.239-4.699-1.71-1.313-.402-3.017-.917-5.124-.862-.001-.001.443 1.263 2.879 2.274zm6.135-.506c-.08-.115-.281-.404-.35-.525-.977-.472-1.225-.623-1.708-.888-.542-.299-1.204-.745-1.854-1.259-.562-.442-1.261-1.351-1.261-1.351.759.259 1.521.802 2.029 1.186.661.498 1.724 1.302 2.618 2.021l-.327-.946c-1.043-.82-2.552-2.287-3.052-2.786-.498-.499-2.426-2.162-3.313-2.342 0 0-.261 1.883.654 3.145.914 1.26 3.872 3.294 6.564 3.745zm7.238 7.004c-.061.43-.079 1.052-.02 1.501.074.576.236 1.133.711 1.69.486.567 1.141.483 1.141.483-.146-.245-.393-.959-.475-1.303-.082-.345-.246-.944-.402-1.387-.204-.516-.618-1.036-.743-1.193-.058.068-.13.139-.212.209zm-.375.246c-.07.035-.146.065-.227.091l-.094.03-.086-.045c-.013-.006-.129-.073-.25-.237-.123.138-.263.381-.349.645-.159.484-.113.958.015 1.366.123.389.551.862.551.862.156-.183.438-.469.574-.938.111-.387.053-.857.021-1.156-.02-.225-.061-.355-.155-.618zm-2.135-.115c-1.303 1.207-1.152 1.697-1.152 1.697.654.102 1.247-.23 1.689-.584.293-.234.496-.562.561-.856.064-.295-.021-.502-.076-.657-.25.182-.584.341-1.022.4zm-1.618-.275c-.767.513-.455 1.158-.455 1.158 1.151.159 1.703-.788 1.854-.971-.016-.02-.225-.294-.277-.731-.355.127-.601.198-1.122.544zm.028-1.36l-.131-.031-.039-.129c-.592.482-1.293.562-1.534.996 0 0 .296.546 1.062.455.766-.091 1.342-.449 1.752-.963.016-.079.049-.222.086-.321-.306.078-.707.108-1.196-.007zm-1.277-1.316c-.706.134-1.427.3-1.789 1.375 0 0 .454.388 1.279.218.699-.143 1.308-.444 1.656-.948.109-.161.185-.411.414-.665-.507-.086-.964-.093-1.56.02zm-2.496-.678s.691.58 1.489.602c.797.023 1.532-.206 1.853-.445-.178-.154-.34-.354-.457-.613l-.062-.134c-.612-.251-1.251-.378-1.875-.146-.625.234-.79.504-.948.736zm.646-2.217s.15.789 1.174 1.061c.961.253 1.318.187 1.707.055.105-.04.224-.077.357-.104-.271-.239-.539-.602-.668-1.147-.283.068-.953.068-1.246-.045-.292-.113-.872-.12-1.324.18zm2.647-.512c.018-.012.247-.152.639-.182-.33-.245-1.112-.901-1.668-1.216-.605-.339-1.61-.789-2.121-.857 0 0 .479 1.26 1.037 1.766.58.527.985.722 1.979.574l.134-.085zm.898-.491c-.244-.319-.438-.757-.579-1.274-.117-.422-.38-1.466-.537-1.736-.157-.271-.722-1.219-1.826-1.512 0 0-.294 1.233.263 2.21.477.841 1.461 1.729 2.679 2.312zm5.116 7.178l-.172-.03c-.016-.002-.217-.041-.464-.167.228.295.445.509.617 1.371.254 1.271.483 1.304.483 1.304.173-.459.533-1.288.961-2.101.426-.812.074-1.483.074-1.483-.248-.123-.352-.201-.488-.337l-.042-.053c-.005.008-.011.016-.019.026-.08.103-.291.303-.688.293.008.064.013.137.013.214 0 .235-.046.517-.198.809l-.077.154zm-8.265-8.913l.224.093c.242.103.482.214.692.318-.262-.281-.483-.573-.651-.87-.121-.211-.205-.433-.263-.652l-.069-.238c-.722-.481-1.463-1.27-1.973-1.737-.513-.467-1.236-1.402-1.64-2.576.479.308.909.692 1.42 1.325.745.923 1.526 1.926 2.176 2.758l-.022-.303c-.002-.139 0-.27.002-.388v-.034c-.553-1.158-1.443-2.582-2.139-3.587-.566-.819-1.865-2.325-2.767-3.09-.211.945-.543 2.707.254 4.226.798 1.52 2.769 3.701 4.756 4.755zm32.697 2.882c-2.503.164-4.168.75-5.378 1.117.179.067.322.137.443.209 2.707-.771 4.633-.369 4.633-.369-.789.263-2.998.607-4.325.599.133.126.217.251.293.362 1.134-.01 2.687.255 4.598-.161 1.912-.416 3.583-1.594 3.583-1.594-.686-.178-2.01-.283-3.847-.163zm-5.956-.63c.307.013.643.1.927.29 1.146-.438 1.679-.624 2.718-.915.818-.229 1.426-.274 1.938-.324 0 0-.721.477-1.909.858-1.179.376-1.688.439-2.646.621-.004.034-.146.717-.938 1.095 1.7-.745 5.053-1.174 6.854-1.923 2.437-1.011 2.879-2.274 2.879-2.274-2.105-.055-3.812.46-5.123.862-1.538.471-3.882 1.344-4.7 1.71zm1.662-2.565l-.328.946c.895-.719 1.958-1.523 2.619-2.021.509-.384 1.27-.927 2.029-1.186 0 0-.699.909-1.262 1.351-.65.514-1.311.96-1.855 1.259-.482.264-.731.416-1.709.888-.067.122-.27.41-.348.525 2.691-.451 5.649-2.485 6.564-3.745.914-1.262.654-3.145.654-3.145-.887.18-2.815 1.843-3.314 2.342-.498.498-2.008 1.966-3.05 2.786zm-2.178.723c.209-.103.451-.215.692-.318l.224-.093c1.986-1.053 3.957-3.234 4.756-4.755.797-1.519.469-3.281.255-4.226-.902.765-2.201 2.271-2.767 3.09-.697 1.005-1.588 2.429-2.141 3.587v.034c.003.118.007.249.001.388l-.022.303c.65-.832 1.433-1.835 2.176-2.758.512-.634.941-1.017 1.421-1.325-.403 1.173-1.126 2.109-1.638 2.576s-1.252 1.256-1.975 1.737l-.068.238c-.058.219-.143.44-.263.652-.168.297-.389.589-.651.87zm-23.095 9.205c-.195.07-.417.111-.668.106l-.026.002c-.819.819-2.545 2.655-2.383 4.649 0 0 1.604-.502 2.264-1.678s1.068-1.912 1.347-2.178c-.18.025-.356.023-.53-.003l-.145-.024c-.407.74-1.213 1.954-1.939 2.377 0 0-.185-.982 1.948-2.974.03-.081.073-.174.132-.277zm18.39-7.855c-.407.278-.858.859-.514 1.675.344.817.986 1.975.6 2.426-.385.452-1.76.688-2.877.237 0 0-.236.707-.645 1.158 0 0 .193.388.838.194 0 0-.236.579.086 1.202 0 0 .75-.129 1.073-.818 0 0 .302.538.902.731 0 0 .493-.257.387-1.245 0 0 .366.881 1.481 1.03 0 0 .646-.815-.192-1.91 0 0 .603.537 1.696.28 0 0 .173-.558-.816-1.332 0 0 1.117-.042 1.547-.987 0 0-.473-.58-1.631-.45 0 0 1.073-.238 1.309-1.525 0 0-.772-.494-1.996.3 0 0 .215-.407.729-.815.516-.408 1.141-1.546.925-3.22-.409.9-1.081 1.823-2.902 3.069zm-2.505 10.544c-.33 1.645.18 2.322.18 2.322.844-1.01.914-2.064 1.105-3.627-.091.209-.212.425-.375.64-.224 1.573-.529 1.795-.529 1.795-.119-.673.074-1.341.074-1.341-.157.104-.313.171-.455.211zm2.371-.827c.243 1.669-.154 1.97-.154 1.97-.396-.779-.264-1.884-.264-1.884-.098-.112-.301-.319-.418-.514.193 3.481.742 3.882.742 3.882.799-.746.561-3.135.491-4.041-.102.191-.297.46-.397.587zm1.031-1.392c-.093-.062-.186-.131-.279-.205-.039-.031-.076-.063-.111-.096 0 .088-.002.178-.012.269.098 1.45.213 2.948.666 3.692.443.729 1.26 1.107 1.26 1.107.767-1.359-.159-3.188-.932-4.458-.098-.036-.195-.08-.291-.13.271.979.787 2.139.575 3.039-.674-.806-.876-3.218-.876-3.218zm3.381-1.72c-.195.091-.449.147-.771.108-.026-.002-.052-.006-.076-.01.101.133.163.265.198.39.572.328 2.238 1.173 2.912 2.534 0 0-1.053-.331-2.871-2.272.005.157-.025.283-.045.35-.008.025-.019.062-.035.098.64.63 1.117 1.23 2.066 2.551.95 1.321 2.457 1.373 2.457 1.373-.146-1.068-.437-1.914-1.242-2.824-.806-.914-1.835-1.746-2.593-2.298zm3.994.645c-.713-.369-2.92-1.201-3.537-1.442.024.034.047.067.067.104l.063.113c.74.342 1.373.544 2.217 1.145.695.495 1.07 1.177 1.07 1.177-1.756-.635-3.418-2.106-3.418-2.106-.033.044-.08.099-.144.156.612.452 2.043 1.871 3.271 2.887 1.229 1.016 2.717.883 2.717.883-.56-1.706-1.593-2.546-2.306-2.917zm1.139-1.785c-.812-.249-2.633-.466-3.359-.615.025.054.05.11.074.169.601.153 1.393.426 2.111.729.662.277 1.295.724 1.295.724-1.281-.033-2.567-.541-3.531-.969-.135.083-.396.207-.764.234.463.121 1.217.356 3.633 1.493s3.695.741 3.695.741c-.872-1.662-2.343-2.258-3.154-2.506zm-2.597-2.088c-.011.01-.137.114-.34.236.871.079 2.726.166 3.683.65 0 0-1.766.236-4.093-.441-.235.111-.419.166-.728.199.168.108.33.247.472.432.851.245 2.302.514 4.694.686 2.395.172 3.671-.268 3.671-.268-.833-.509-2.164-1.027-3.062-1.2-.9-.173-3.261-.154-4.297-.294zm-8.236 3.11c-.125.157-.539.677-.742 1.193-.155.442-.321 1.042-.401 1.388-.083.342-.329 1.057-.478 1.301 0 0 .656.084 1.142-.482.476-.557.638-1.115.713-1.689.058-.45.041-1.072-.021-1.502-.084-.073-.154-.144-.213-.209zm1.245.291c-.121.164-.238.231-.25.237l-.086.045-.095-.03c-.08-.026-.155-.056-.226-.091-.094.263-.133.394-.157.618-.032.3-.091.771.021 1.156.139.469.418.755.573.937 0 0 .429-.473.552-.861.127-.408.174-.881.016-1.366-.087-.264-.225-.506-.348-.645zm.457-.355c-.055.155-.141.362-.076.657.064.295.269.62.562.856.439.354 1.035.686 1.688.584 0 0 .149-.49-1.152-1.697-.438-.058-.772-.217-1.022-.4zm3.093 1.284s.311-.645-.455-1.158c-.52-.346-.766-.417-1.123-.544-.051.437-.262.711-.277.731.152.184.704 1.13 1.855.971zm-1.677-2.511c.036.099.07.241.086.321.409.514.987.873 1.752.963.768.091 1.061-.455 1.061-.455-.241-.435-.942-.514-1.534-.996l-.04.129-.131.031c-.487.115-.888.085-1.194.007zm1.327-.678c.347.504.956.805 1.655.948.824.169 1.277-.218 1.277-.218-.36-1.074-1.082-1.241-1.789-1.375-.592-.113-1.051-.106-1.56-.019.23.253.306.503.417.664zm2.151-.721c.798-.021 1.49-.602 1.49-.602-.16-.232-.324-.502-.948-.736-.623-.232-1.261-.105-1.875.146l-.06.134c-.119.26-.281.46-.459.613.319.239 1.055.468 1.852.445zm-2.038-1.703c.392.132.747.198 1.707-.055 1.024-.272 1.173-1.061 1.173-1.061-.45-.3-1.029-.293-1.322-.18-.294.113-.963.113-1.246.045-.13.545-.396.908-.668 1.147.132.027.252.064.356.104zm2.347-2.116c.559-.506 1.037-1.766 1.037-1.766-.512.067-1.515.517-2.12.857-.557.315-1.338.971-1.669 1.216.391.03.62.17.639.182l.133.086c.995.147 1.402-.048 1.98-.575zm-.33-2.315c.557-.977.264-2.21.264-2.21-1.105.293-1.668 1.241-1.827 1.512-.157.27-.421 1.314-.537 1.736-.142.517-.336.955-.582 1.274 1.221-.583 2.202-1.471 2.682-2.312zm-8.746 8.021c-.008-.01-.013-.017-.02-.026l-.039.053c-.141.136-.243.214-.489.337 0 0-.353.672.074 1.484.426.812.788 1.641.96 2.1 0 0 .229-.033.482-1.305.175-.86.392-1.075.619-1.37-.246.126-.447.164-.465.167l-.171.029-.079-.153c-.15-.292-.195-.574-.195-.809 0-.077.004-.15.013-.214-.397.01-.608-.19-.69-.293zm6.779 2.279l-.027-.002c-.25.006-.473-.036-.666-.106.059.104.103.196.133.277 2.133 1.992 1.949 2.975 1.949 2.975-.727-.424-1.533-1.638-1.938-2.377l-.146.023c-.176.027-.353.027-.529.003.277.267.685 1.003 1.345 2.178.66 1.177 2.265 1.677 2.265 1.677.159-1.993-1.568-3.829-2.386-4.648zM84.282 12.938c0 .148.562.267 1.254.267.69 0 1.251-.119 1.251-.267 0-.147-.561-.267-1.251-.267-.692 0-1.254.12-1.254.267zm-3.443 1.586c.445 0 .806-.065.806-.146s-.36-.146-.806-.146c-.446 0-.808.065-.808.146s.362.146.808.146zm4.697-.753c.135 0 .245-.109.245-.246 0-.136-.11-.245-.245-.245-.138 0-.248.11-.248.245-.001.136.11.246.248.246zm-.761-1.288c-.074-.557-.275-1.898-.493-2.065-.11-.083-.259-.074-.425-.022-.166.051-.342.161-.349.31-.011.246.267.978.683 1.972.247-.127.371-.153.584-.195zm.179-.021c.104-.011.214-.017.323-.021-.066-.531-.25-1.419-.358-1.769-.108-.35-.247-.602-.478-.665 0 0 .179.488.275.991.098.503.175.985.238 1.464zm-.632 1.734c.304-.179.566-.59.623-.782-.256-.036-.909.035-1.311.322-.4.286-.533.521-.671.775.001 0 .721.058 1.359-.315zm-3.198 2.24c-.019-.139-.013-.378-.013-.378.373.35 1.142.596 1.142.596-.012-.206-.081-.384-.081-.384.328.194.512.171.512.171-.035-.241-.201-.527-.201-.527.229.286.522.305.522.305.04-.144-.046-.5-.046-.5.114.144.327.517.99.659.664.144.963-.228.963-.228-.648.045-1.255-.585-1.255-.585.339-.132.452-.378.452-.378-.193-.172-.396-.172-.396-.172.379-.172.458-.471.458-.471-.475.23-1.943.247-2.738.287-.797.039-1.594-.258-1.594-.258.093 1.743 1.285 1.863 1.285 1.863zm-1.794-1.38c.113.298.585.652.585.652-.133-.264-.229-.636-.258-1.014-.469-.142-.443.062-.327.362zm-.499.016c-.263-.062-.819-.125-1.065.235-.246.361-.148 1.043.344 1.324 0 0 .75-.647 1.662-.005 0 0 .213-.137.688-.247 0 0-.279-.338-.595-.481-.283-.127-.867-.298-1.034-.826zm2.303 2.064c-.239-.195-.573-.637-.573-.637-.436.099-.742.157-1.076.614-.311.424.113 1.072.113 1.072.31-1.061 1.536-1.049 1.536-1.049zm2.397.755c-.311-.355-.705-1.238-.705-1.238-.127-.011-.275-.051-.395-.08.01.11.004.339.004.339-.131-.034-.527-.149-.527-.149.471.326.615.445.843.682.401.418.625.939.625.939.172-.297.155-.493.155-.493zm-.992.27c.041-.544-.225-.859-.607-1.134-.308-.219-.939-.418-1.066-.453.259.378.748.809 1.021.963.343.194.652.624.652.624zm-1.321-5.336c0-.187-.226-.243-.344-.243h-.063c-.117 0-.346.055-.346.243s.294.642.373.845h.008c.078-.202.372-.656.372-.845zm-.988 1.26c.119-.02.096-.013.388-.036-.056-.266-.16-.953-.324-1.104-.155-.145-.383-.159-.496-.152-.114.007-.235.126-.188.28.046.155.554.917.62 1.012zm.836-.036c.293.022.27.016.388.036.067-.095.573-.857.622-1.013.049-.154-.072-.273-.188-.28-.113-.007-.344.007-.498.152-.161.152-.266.84-.324 1.105zm-.389-1.598h.322v-.516h.396v-.275h-.396v-.438h-.322v.438h-.396v.276h.396v.515zm-4.081 2.031c0-.084.006-.168.018-.251.029-.213.031-.395.009-.545-.284.108-.478.178-.869.81-.001-.001.625-.386.842-.014zm.252-.22c-.055.399.026.825.295 1.224.008-.157.111-.654.241-1.004.16-.429.068-1.052-.125-1.431-.186-.366-.288-.708-.254-1.088 0 0-.372.125-.585.256-.033.439.221.878.344 1.129.145.294.114.678.084.914zm.748-2.162c.247-.065.571-.321.834-.534.26-.213.434-.192.434-.192-.092-.077-.282-.214-.592-.152-.492.098-1.074.666-1.074.666-.027.055-.027.194-.014.243.117.013.17.032.412-.031zm.709.632c-.115.218-.283.495-.207.89.088.441.803.61.803.61-.131-.134-.241-.296-.252-.455-.022-.318.163-.577.29-.777s.369-.722.373-.931c.004-.201-.181-.433-.4-.653.027.1-.014.251-.088.432-.084.2-.412.678-.519.884zm4.782 3.655c.144.504.386.978.624 1.352.215.338.352.892.332 1.079 0 0 .323-.712.158-1.216-.129-.39-.474-.97-1.114-1.215zm1.522.324c-.229-.151-.719-.158-.719-.158.116.346.418.711.661.956.245.244.741.33.741.33-.106-.51-.388-.933-.683-1.128zm-3.097 1.122c.178.146.331.372.403.754.101.532.415 1.107.509 1.279l.038-.008c-.058-.365.172-1.127.229-1.235 0 0-.33-.208-.481-.425-.112-.159-.31-.423-.854-.762-.096.008-.347.065-.469.101 0 .001.418.123.625.296zm2.306 2.04c.152-.517-.172-1.013-.293-1.293-.274.223-.496.459-.533 1.07s.129 1.402.129 1.402c.21-.438.547-.661.697-1.179zm.109.288c-.065.208-.122.705-.087.913.038.208.338.604.338.604.26-.466.539-.706.704-.928.166-.223.245-.467.159-.833-.088-.371-.575-1.315-.575-1.315-.216.683-.474 1.351-.539 1.559zm.036 2.455c-.076.2-.207.577-.031.839.178.261.582.68.938.858 0 0-.385-.601-.346-1.093.024-.314.269-.595.314-.788.046-.192.016-.515-.122-.814-.107.115-.675.798-.753.998zm-1.332.892c.148.341.415.723.415.723.14-.261.442-.843.638-1.365.153-.414.199-.643.18-.925-.021-.287-.174-.581-.262-.702-.08.375-.168.817-.375 1.292-.177.406-.596.977-.596.977zm-1.454.764c.288 0 .724-.235 1.259-.911.791-.998.971-2.343.971-2.343-.811 1.359-1.62 2.064-2.25 2.029-.555-.03-.817-.836-.817-.836-.28.228-.327.872-.181 1.286.148.412.584.775 1.018.775zm1.046-2.056c.307-.193.469-.539.535-.802.088-.348.066-.717 0-.958-.523 1.459-1.675 1.373-1.675 1.373.242.595.872.554 1.14.387zm1.886 5.376c.119.61.789 1.143.789 1.143.088-.276.453-.787.463-1.625.002-.316-.562-.828-.719-1.231-.521.463-.592 1.401-.533 1.713zm-1.022-2.63c-.129.601.511.965.808 1.506.078-.216.324-.807.609-1.014 0 0 .366-1.074-.807-1.733-.002.001-.483.641-.61 1.241zm-1.321-.561s-.068.479-.029.797c.06.473.363.956.494 1.311 0 0 .512-.67.57-1.064s.049-.719.069-.906c0 0-.286-.463-.443-.779-.189.227-.454.543-.661.641zm-.28 1.144c.095-.26.031-1.027.031-1.027-.484.225-1.063-.082-1.063-.082.007.589.478 1.402.623 1.623.234-.177.334-.304.409-.514zm-.277.677c.207.206.255.245.466.399.212.153.402.104.402.104-.065-.206-.448-.908-.448-.908-.095.111-.324.325-.42.405zm1.003.733s.048.312.278.761c.23.448.55.763.719.921 0 0 .383-.668.496-.962.13-.336.115-.668.059-.791-.13-.289-.578-.708-.777-1.074-.048.178-.669 1.038-.775 1.145zm1.145 1.906c-.137.254-.172.662-.078.949.125.383.693.916.693.916.164-.289.412-.668.489-.862.076-.195.122-.427.07-.71-.064-.358-.478-.812-.614-1.09-.129.265-.425.543-.56.797zm-.873 1.717c.059-.207.229-.404.373-.743.158-.385.129-.596.033-.927-.08-.281-.43-.602-.578-.92-.111.237-.277.573-.371.833-.096.26-.071.668.006.916.076.245.537.841.537.841zm2.662.736c-.049-.4-.154-.659-.567-1.062 0 0-.791.956-.772 1.463.022.632.441 1.052.502 1.441 0 0 .414-.47.572-.784.178-.354.312-.655.265-1.058zm-2.65.207c.07.295.384.938.384.938.13-.224.521-.748.62-1.121.1-.371-.254-.996-.379-1.18-.631.592-.695 1.069-.625 1.363zm7.734-16.997c.446 0 .808-.065.808-.146s-.361-.146-.808-.146c-.444 0-.806.065-.806.146s.362.146.806.146zm-4.216-4.088c0-.265-.214-.479-.478-.479-.267 0-.479.214-.479.479 0 .337.418 1.106.469 1.467h.017c.053-.361.471-1.13.471-1.467zm.863 2.243c.418-.995.695-1.727.686-1.972-.008-.15-.185-.259-.351-.31-.167-.052-.315-.061-.424.022-.218.166-.419 1.507-.494 2.065.212.041.339.067.583.195zm-.76-.217c.062-.478.138-.96.234-1.465.098-.504.275-.991.275-.991-.23.064-.367.315-.477.665-.108.35-.291 1.238-.357 1.769.11.004.218.011.325.022zm.007.952c.058.191.319.603.624.782.639.374 1.357.316 1.357.316-.138-.254-.269-.488-.67-.775-.4-.288-1.055-.359-1.311-.323zm.997 2.964c.663-.142.877-.515.99-.659 0 0-.086.356-.047.5 0 0 .293-.018.521-.305 0 0-.166.286-.199.527 0 0 .184.023.51-.171 0 0-.068.178-.08.384 0 0 .768-.246 1.14-.596 0 0 .007.24-.011.378 0 0 1.191-.12 1.283-1.863 0 0-.795.297-1.592.258-.798-.04-2.265-.057-2.74-.287 0 0 .08.299.459.471 0 0-.201 0-.396.172 0 0 .115.246.454.378 0 0-.608.63-1.256.585 0 0 .298.372.964.228zm4.033-.67s.471-.354.584-.652c.117-.3.145-.504-.325-.362-.028.378-.126.75-.259 1.014zm1.807.923c.492-.281.59-.963.342-1.324-.246-.361-.801-.297-1.066-.235-.166.528-.75.699-1.03.826-.315.143-.597.481-.597.481.477.109.688.247.688.247.911-.642 1.663.005 1.663.005zm-1.49 1.554s.424-.648.114-1.072c-.334-.457-.642-.515-1.078-.614 0 0-.331.442-.573.637.002 0 1.227-.012 1.537 1.049zm-3.227-1.531s-.395.883-.705 1.238c0 0-.018.195.154.493 0 0 .225-.521.625-.939.227-.237.371-.356.843-.682 0 0-.396.115-.527.149 0 0-.007-.229.005-.339-.119.029-.27.069-.395.08zm.895.372c-.385.275-.648.59-.609 1.134 0 0 .311-.43.654-.624.272-.154.762-.585 1.021-.963-.128.036-.76.234-1.066.453zm1.465-4.201c0-.187-.228-.243-.346-.243h-.062c-.117 0-.344.055-.344.243s.293.642.371.845h.008c.078-.202.373-.656.373-.845zm-.152 1.224c.291.022.269.016.386.036.066-.095.576-.857.623-1.013.048-.154-.074-.273-.188-.28-.114-.007-.342.007-.498.152-.164.152-.268.84-.323 1.105zm-.837.036c.119-.02.094-.013.387-.036-.057-.266-.159-.953-.322-1.104-.156-.145-.384-.159-.498-.152-.115.007-.236.126-.188.28.046.155.555.917.621 1.012zm.455-1.634h.32v-.516h.397v-.275h-.397v-.438h-.32v.438h-.395v.276h.395v.515zm-4.756-2.592h.322v-.515h.397v-.275h-.397v-.438h-.322v.439h-.394v.275h.395v.514zm9.142 4.371c.012.083.019.167.019.251.217-.372.844.014.844.014-.394-.632-.586-.702-.87-.81-.025.15-.023.332.007.545zm-.768.252c.129.351.232.847.239 1.004.269-.399.351-.825.296-1.224-.031-.236-.062-.619.084-.914.123-.251.379-.69.344-1.129-.213-.13-.586-.256-.586-.256.035.379-.067.722-.254 1.088-.194.378-.286 1.002-.123 1.431zm-.215-2.382c.242.064.297.044.412.03.014-.049.014-.187-.015-.243 0 0-.582-.568-1.072-.666-.312-.062-.503.075-.593.152 0 0 .172-.021.434.192.263.214.586.469.834.535zm-1.052 1.677c-.012.159-.121.321-.251.455 0 0 .714-.17.801-.61.078-.395-.091-.672-.205-.89-.107-.205-.437-.684-.52-.884-.075-.181-.115-.332-.089-.432-.22.22-.404.452-.4.653.005.208.245.731.373.931.127.2.313.459.291.777zm-5.551 3.825c-.166.504.157 1.216.157 1.216-.021-.187.115-.741.33-1.079.238-.374.482-.848.627-1.352-.641.245-.986.825-1.114 1.215zm-.352-.093c.244-.245.545-.61.66-.956 0 0-.488.007-.719.158-.294.195-.575.619-.682 1.128 0 0 .496-.086.741-.33zm3.199-.072c-.546.338-.744.603-.855.762-.151.216-.482.425-.482.425.059.108.288.87.229 1.235l.039.008c.094-.172.408-.747.51-1.279.072-.382.225-.609.402-.754.209-.172.625-.295.625-.295-.124-.037-.374-.094-.468-.102zm-1.64 2.213c-.037-.611-.259-.847-.533-1.07-.122.28-.444.776-.295 1.293.151.518.49.74.698 1.179.001 0 .166-.791.13-1.402zm-2.539-1.781h-.007c-.129.057-.655.338-.692.733-.034.395.667 1.126.688 1.427h.014c.021-.301.725-1.031.688-1.427-.036-.395-.562-.676-.691-.733zm.489 2.048c-.086.366-.008.61.16.833.164.222.444.462.705.928 0 0 .301-.396.338-.604.035-.209-.021-.705-.086-.913-.065-.208-.324-.876-.541-1.559-.001 0-.488.944-.576 1.315zm-.487 2.338c.224-.193.42-.476.481-.646.062-.169.08-.417-.068-.605-.176-.226-.398-.479-.413-.684h-.013c-.016.206-.235.458-.412.684-.148.189-.131.437-.068.605.061.17.262.454.484.646h.009zm.814-.638c-.138.3-.17.623-.123.814.047.193.291.473.315.788.039.492-.345 1.093-.345 1.093.355-.178.76-.598.938-.858.176-.261.047-.639-.031-.839-.079-.199-.648-.882-.754-.998zm1.114-.378c-.088.121-.241.416-.261.702-.021.282.025.51.182.925.193.522.495 1.104.635 1.365 0 0 .269-.382.416-.723 0 0-.418-.572-.597-.977-.208-.476-.294-.917-.375-1.292zm3.261.971s-.261.807-.817.836c-.63.035-1.44-.67-2.25-2.029 0 0 .181 1.345.971 2.343.536.676.972.911 1.259.911.436 0 .871-.362 1.019-.776.146-.413.101-1.057-.182-1.285zm-2.417-1.754c-.067.241-.088.609 0 .958.065.264.228.61.535.802.269.167.896.208 1.139-.388 0 .001-1.152.087-1.674-1.372zm-3.266 3.571c.187.286.325.343.488.421h.002c.162-.078.3-.135.487-.421.147-.225.287-.64.207-.935-.098-.365-.295-.513-.414-.74-.099.09-.156.16-.275.23h-.007c-.119-.07-.183-.141-.281-.23-.118.227-.315.375-.414.74-.077.295.059.71.207.935zm.494.59h-.006c-.287.238-.652.119-.755.68-.067.374.673 1.064.752 1.418h.005c.078-.354.823-1.044.753-1.418-.101-.561-.464-.442-.749-.68zm.168 2.492c.009.837.374 1.348.463 1.624 0 0 .669-.531.787-1.142.062-.312-.009-1.25-.531-1.713-.157.404-.722.915-.719 1.231zm1.664-3.387c-1.172.659-.808 1.733-.808 1.733.287.206.531.797.609 1.014.297-.541.938-.906.811-1.506-.129-.601-.612-1.241-.612-1.241zm1.271.039c-.157.315-.443.779-.443.779.021.187.009.512.067.906.061.394.572 1.064.572 1.064.129-.354.434-.837.493-1.311.039-.318-.03-.797-.03-.797-.206-.099-.472-.415-.659-.641zm.909.756s-.063.767.031 1.027c.076.211.175.337.411.514.145-.221.615-1.034.621-1.623 0 .001-.578.307-1.063.082zm.309 1.705c-.096-.081-.325-.294-.42-.406 0 0-.385.702-.448.908 0 0 .192.049.403-.104.209-.153.256-.192.465-.398zm-1.004.733c-.106-.107-.727-.968-.773-1.145-.2.366-.65.785-.779 1.074-.055.124-.07.455.059.791.113.294.496.962.496.962.172-.16.49-.473.719-.921.23-.449.278-.761.278-.761zm-3.324 1.369c-.049.158-.445.713-.559.938-.098.194-.101.478-.013.721.149.41.507.689.565.926h.012c.059-.236.416-.516.566-.926.088-.243.084-.526-.013-.721-.11-.225-.513-.779-.558-.938zm1.074 1.54c.076.194.326.571.49.862 0 0 .567-.533.69-.916.096-.287.06-.695-.076-.949s-.431-.532-.56-.797c-.137.278-.549.732-.614 1.091-.051.283-.005.514.07.709zm2.149-1.877c-.148.32-.499.64-.579.92-.094.331-.124.543.036.927.141.339.312.537.372.743 0 0 .46-.595.536-.845.079-.248.102-.655.008-.914-.095-.257-.261-.595-.373-.831zm-3.22 7.49c.028-.291.63-1.192.659-2.148.014-.479-.413-1.227-.655-1.512h-.013c-.242.285-.668 1.033-.652 1.512.029.956.629 1.857.659 2.148h.002zm1.728-3.761c.019-.507-.773-1.463-.773-1.463-.414.402-.52.661-.567 1.062-.049.402.088.703.265 1.059.158.314.572.784.572.784.059-.39.479-.81.503-1.442zm.684-1.556c-.125.183-.478.808-.378 1.18s.49.896.619 1.121c0 0 .312-.643.384-.938.072-.296.006-.773-.625-1.363zm-2.412 7.254c.052.102.123.197.217.286.511.483.832.438 1.114.337 0 0-.838-.283-.79-1.028.047-.743.469-1.188.543-1.573.083-.426.054-.832-.276-1.321-.266.915-.561 1.581-.791 2.042-.006.011-.011.023-.016.037-.008-.014-.012-.026-.018-.037-.23-.461-.525-1.127-.793-2.042-.33.491-.357.896-.275 1.321.074.387.496.832.543 1.573.047.745-.791 1.028-.791 1.028.283.102.604.146 1.115-.337.093-.089.164-.184.218-.286zm-2.272-3.369c.537-.379.623-.734.559-1.031-.034-.156-.295-.67-.385-.947-.133.232-.447.594-.58.75-.133.154-.209.365-.082.666.139.32.488.562.488.562zm-.437.573c-.451.134-.552.644-.552.644.199.098.283.336.685.336.431 0 .927-.437 1.261-1.022.239-.418.352-1.261.352-1.409-.346.624-1.194 1.287-1.746 1.451zm-1.641.612s.525.137.858-.015c0 0 .123-.502.497-.727.082-.05.344-.125.588-.25-.093-.071-.173-.12-.286-.25 0 0-.426.157-.776.395-.352.236-.697.638-.881.847zm-.454-.689s.56-.121.988-.266c.471-.155.797-.366.971-.467-.082-.127-.248-.359-.211-.726 0 0-.739.466-.961.646-.223.181-.683.656-.787.813zm-1.123 1.407s.469-.32.98-.517c.333-.127.495-.477.85-.824-.398.143-1.293.287-1.668.397-.375.111-.646.304-1.004.695.001.002.549.155.842.249zm-1.194.311c-.034.069.011.142.137.162.248.043.845-.067.99.024.157.104.103.24.103.377 0 0 .271-.165.442-.129.239.052.384.162.521.554.086-.093.193-.203.11-.425-.06-.163-.383-.342-.579-.437-.32-.151-1.212-.391-1.503-.477.001.001-.144.171-.221.351zm2.373-.103c.071-.133.376-.583.655-.643 0 0-.238-.023-.373-.066 0 0-.289.074-.496.158-.205.082-.461.209-.76.404.063.021.41.127.75.342 0 .001.15-.057.224-.195zm.095.446c-.078.465.166.688.283.746.119.06.666.282 1.021-.449 0 0-.605.199-.771-.092-.164-.293.104-.717.268-.839.217-.161.606-.272.842-.229 0 0-.19-.183-.414-.298-.055.025-.144.068-.353.076 0 .003-.784.545-.876 1.085zm-3.52 3.851c.354-.748 1.223-2.743 3.033-3.096.17-.032-.195-.455-.358-.434-.162.02-.485.229-.628.323 0 0 0-.425-.004-.5-.006-.078-.071-.106-.143-.103-.068.002-.508-.004-.646.156-.412.477-1.108 1.762-1.503 2.719-.395.955-.665 1.248-1.081 1.101-.416-.146-.665-.622-1.392-.478-.25.051-.529.219-.748.469.062.117.138.259.479.259.339 0 .986.142 1.348.394s.741.336 1.262.393c.094-.397.2-.816.381-1.203zm5.285-2.271c-.59.4-.629.928-.629.928 1.992-.198 2.543-2.74 2.543-2.74-.166-.301-.315-.59-.354-.896-.172.078-.433.275-.676.699-.245.426-.788.78-1.214 1.055-.426.277-.567.758-.567.758.961-.008 1.582-1.031 1.866-1.385.281-.354.439-.388.439-.388.066.943-.818 1.566-1.408 1.969zm1.782 7.175c-.111-.156-.418-.586-.818-1.146l-.344.52 1.213 1.697.92-1.634-.327-.583c-.24.432-.498.894-.644 1.146zm-4.735-5.632l2.92 4.092.342-.521c-1.18-1.654-2.641-3.703-2.788-3.91l.458-.328-1.445-.555.026 1.574.487-.352zm-6.07-4.198c.611.562 1.245.867 1.574.509.357-.39-.028-.963-.641-1.526-.61-.562-1.216-.896-1.572-.508-.358.389.028.965.639 1.525zm1.695 5.827c-.004-.176-.16-.221-.301-.221-.142 0-.731.014-1.047-.222-.021-.015-.039-.033-.058-.05-.325-.283-.511-.721-.511-1.199 0-.919.748-1.667 1.668-1.667.918 0 1.664.748 1.664 1.667 0 .125-.023.328-.023.328.076-.143.35-.779.406-.895-.248-.896-1.073-1.557-2.046-1.557-.839 0-1.566.488-1.911 1.195.131-.84.549-1.596.846-1.877.355-.336.958-.442.958-.442-.394.063-.918-.181-1.5-.715-.554-.509-.84-.952-.856-1.323.037.525.019.818-.129 1.244-.203.581-.752 1.65-.557 2.859.109.666.59 1.652 1.395 2.461.172.182.236.449.257.589 0 0 1.188 0 1.47.024-.001.004.281-.023.275-.199zm2.97.494c-.47.072-.931.096-1.371.075.007.073.006.17-.036.241 0 0 .09.102.09.218.448.019.913-.009 1.389-.083.789-.119 1.621-.281 2.455-.596l-.277-.389c-.765.278-1.526.424-2.25.534zm6.394-3.362l.16-.267c-.242.107-.556.033-.556.033-.015.022-.054.083-.073.117-.833 1.228-1.753 2.002-2.693 2.508l.271.379c1.01-.553 2-1.406 2.891-2.77zm-9.575 3.205c-.139-.022-.584-.012-.851.031-.291.045-.622.104-.659.266-.033.152.073.316.221.547.092.143.308.062.429.016.121-.044.806-.41.916-.533.11-.12.155-.291-.056-.327zm.7.452c-.074-.045-.252-.115-.438-.043-.186.068-.861.467-.906.653s.046.28.151.322c.104.041.233.081.325.09.168.012.334-.085.42-.19.087-.106.402-.488.449-.574.045-.085.069-.212-.001-.258zm.082.419c-.097.11-.369.441-.402.496-.031.053.016.14.102.131.086-.01.549-.058.817-.24.267-.184.444-.533.262-.661-.186-.129-.469-.071-.779.274zm-.366-1.005c-.096.145-.027.301.246.432.271.129.785.234.888.094.1-.143-.039-.382-.619-.531-.088-.023-.438-.113-.515.005zm12.28-7.512s.348-.242.487-.562c.129-.301.054-.512-.081-.666-.134-.156-.449-.517-.583-.75-.089.277-.349.789-.383.947-.061.297.023.653.56 1.031zm.435.573c-.551-.164-1.399-.827-1.744-1.451 0 .149.111.99.354 1.409.334.586.826 1.023 1.26 1.023.4 0 .484-.24.683-.336-.001-.001-.104-.511-.553-.645zm1.642.612c-.187-.209-.528-.611-.88-.847-.35-.237-.777-.395-.777-.395-.113.13-.192.179-.285.25.244.125.506.202.588.25.375.225.496.727.496.727.333.152.858.015.858.015zm-.332-1.501c-.221-.18-.961-.646-.961-.646.036.365-.13.599-.211.726.174.102.498.312.97.467.43.145.989.266.989.266-.105-.158-.566-.633-.787-.813zm.929 1.703c.512.196.98.517.98.517.293-.095.843-.247.843-.247-.358-.393-.63-.584-1.005-.695s-1.27-.256-1.667-.396c.352.343.515.694.849.821zm.453.954c-.197.095-.521.273-.582.437-.082.223.026.332.11.425.138-.392.283-.502.521-.554.172-.036.443.129.443.129 0-.137-.054-.273.104-.377.144-.092.742.019.99-.024.125-.021.17-.092.135-.162-.075-.18-.221-.35-.221-.35-.289.086-1.181.324-1.5.476zm-.429-.034c.34-.215.688-.319.751-.342-.299-.195-.555-.322-.76-.404-.206-.084-.497-.158-.497-.158-.136.043-.373.066-.373.066.278.06.584.51.655.643.075.137.224.195.224.195zm-.601.996c.117-.059.361-.281.283-.746-.094-.539-.879-1.082-.879-1.082-.207-.009-.297-.052-.351-.076-.226.113-.416.297-.416.297.239-.043.628.066.844.229.165.122.433.547.267.838-.166.293-.771.092-.771.092.357.73.903.506 1.023.448zm7.272 3.263c-.22-.25-.498-.42-.748-.469-.726-.145-.975.332-1.392.478-.416.147-.687-.146-1.08-1.101-.396-.957-1.091-2.242-1.504-2.719-.138-.16-.577-.154-.646-.156-.07-.004-.138.024-.142.103-.004.075-.004.5-.004.5-.144-.095-.466-.304-.63-.323-.161-.021-.528.401-.356.434 1.81.352 2.679 2.348 3.031 3.096.183.387.287.806.383 1.203.522-.057.901-.141 1.263-.393.361-.253 1.008-.394 1.349-.394.339 0 .415-.143.476-.259zm-9.724-4.013c.284.354.905 1.377 1.866 1.385 0 0-.143-.479-.567-.756-.425-.274-.97-.629-1.213-1.056-.244-.424-.503-.62-.679-.7-.037.307-.188.598-.354.897 0 0 .551 2.542 2.544 2.739 0 0-.04-.526-.63-.928-.591-.402-1.473-1.025-1.41-1.97.002.002.161.035.443.389zm-.712 3.043c-.33-.303-1.086-1.365-1.2-1.705h-.007c-.116.34-.871 1.403-1.201 1.705-.331.305-1.135 1.107-1.562 1.51 0 0 1.223-.303 1.91-.928 0 0 .49.285.848.285h.02c.355 0 .848-.285.848-.285.688.625 1.91.928 1.91.928-.432-.402-1.236-1.206-1.566-1.51zm-1.197 1.117h-.018c-.271 0-.524-.107-.668-.169.143.304.414.776.674.972h.006c.259-.195.533-.668.675-.972-.142.061-.398.169-.669.169zm6.32-.681l.029-1.574-1.449.554.459.329c-.234.329-3.812 5.343-4.262 5.974l-2.166-3.926-.268.407-1.93 2.912-.481-.321-.007 1.549 1.463-.58-.49-.324c.266-.401 1.312-1.981 1.662-2.51l2.168 3.861 4.785-6.703.487.352zm-5.213 2.489c.166.252.49.742.813 1.229l.362-.507-.959-1.448-.27-.407-.931 1.678.342.611c.276-.49.522-.93.643-1.156zm2.145 2.187l-.346-.522-.362.509c.097.143.172.261.222.338l-.489.322 1.465.58-.01-1.549-.48.322zm8.65-9.226c.611-.561.996-1.137.64-1.524-.358-.388-.964-.054-1.575.508s-.996 1.138-.64 1.526c.331.358.964.052 1.575-.51zm1.016-1.149c-.016.371-.302.813-.855 1.323-.584.535-1.105.779-1.502.715 0 0 .604.107.959.443.297.279.715 1.035.846 1.875-.344-.707-1.07-1.194-1.91-1.194-.977 0-1.799.66-2.046 1.558.055.114.329.75.405.894 0 0-.023-.204-.023-.328 0-.919.746-1.667 1.665-1.667s1.667.748 1.667 1.667c0 .479-.186.916-.512 1.2-.018.016-.035.033-.055.049-.318.236-.908.222-1.049.222-.14 0-.296.046-.301.222-.006.176.275.201.275.201.283-.025 1.472-.025 1.472-.025.019-.139.084-.407.257-.59.805-.808 1.285-1.795 1.393-2.459.197-1.209-.354-2.279-.556-2.86-.15-.429-.165-.722-.13-1.246zm-8.912 6.499c-.941-.506-1.861-1.281-2.693-2.507-.02-.034-.059-.095-.072-.117 0 0-.315.074-.557-.033l.158.267c.893 1.363 1.881 2.215 2.893 2.77l.271-.38zm3.23.971c-.723-.111-1.486-.256-2.252-.533l-.274.388c.834.315 1.667.478 2.455.597.476.074.94.102 1.392.083 0-.116.088-.218.088-.218-.043-.071-.045-.169-.037-.241-.441.021-.902-.003-1.372-.076zm4.032-.125c-.267-.043-.711-.054-.852-.031-.211.035-.166.207-.055.326.111.123.795.489.916.532.119.046.336.127.429-.016.147-.231.255-.394.221-.548-.034-.16-.368-.218-.659-.263zm-1.112.377c-.188-.072-.365-.002-.439.043-.068.047-.044.174 0 .258.047.086.362.468.448.574.085.105.252.202.42.19.092-.009.222-.049.326-.09.104-.042.196-.136.151-.322-.046-.187-.721-.585-.906-.653zm-1.297.187c-.184.128-.006.479.262.661s.73.231.816.239.133-.076.102-.131c-.032-.054-.307-.385-.402-.494-.31-.345-.595-.403-.778-.275zm.627-.737c-.577.149-.719.39-.619.531.103.142.617.036.889-.095s.34-.286.245-.432c-.076-.115-.427-.025-.515-.004z"></path></svg>